<svg id="Layer_1" viewBox="0 0 24 24" xmlns="http://www.w3.org/2000/svg" data-name="Layer 1"><path d="m22.652 6.337c-.224-.22-.519-.331-.829-.33-.865.019-1.919.061-2.914.189-.152-.374-.331-.718-.563-1.016l.385-.614c.347-.558.179-1.297-.375-1.648l-.506-.322c-.273-.174-.594-.227-.91-.158-.314.071-.581.262-.752.535l-.446.714c-.236-.049-.483-.087-.741-.115v-1.37c0-.662-.538-1.2-1.2-1.2h-.6c-.662 0-1.2.538-1.2 1.2v1.438c-.21.037-.416.084-.621.141l-.509-.822c-.17-.274-.438-.465-.753-.537-.314-.071-.638-.016-.911.157l-.506.322c-.553.35-.721 1.088-.376 1.644l.542.876c-.313.449-.523.994-.676 1.606-.087-.005-.179-.006-.268-.01-.382-3.143-2.522-5.517-5.441-5.947-.368-.052-.745.057-1.028.303-.289.249-.454.609-.454.988v.417c0 .631.447 1.164 1.062 1.269 1.511.258 2.641 1.574 2.882 3.3-2.035.66-2.944 2.297-2.944 5.153 0 7.065 3.435 10.5 10.5 10.5 2.075 0 5.226-.443 6.741-.948.123-.041.226-.129.285-.244 1.018-1.957 1.474-5.08 1.474-7.308 0-1.765-.327-3.525-.999-5.362.601-.072 1.217-.115 1.866-.131.625-.014 1.133-.527 1.133-1.144v-.704c0-.311-.123-.604-.348-.822zm-12.755-1.15-.724-1.17c-.058-.093-.029-.215.062-.273l.507-.322c.13-.057.187-.044.277.063l.712 1.149c.122.198.365.281.585.21.406-.137.812-.228 1.239-.276.253-.029.443-.243.443-.497v-1.87c0-.11.09-.2.2-.2h.6c.11 0 .2.09.2.2v1.829c0 .265.206.483.47.499.506.03.969.101 1.378.209.218.054.436-.032.552-.219l.636-1.018c.092-.106.149-.122.277-.062l.506.322c.093.059.121.183.063.274l-.579.926c-.121.194-.096.445.062.61.215.226.38.498.524.794-2.434.484-4.346 1.425-5.585 2.748-.609-1.09-1.631-1.731-3.128-1.985.151-.544.373-.993.679-1.356.14-.165.157-.401.043-.585zm-7.668-2.126c-.131-.022-.229-.144-.229-.282v-.417c.009-.174.131-.321.337-.301 2.429.357 4.219 2.338 4.58 4.973-.35.017-.689.045-.998.094-.327-2.122-1.765-3.739-3.689-4.067zm19.771 4.802c0 .077-.069.142-.155.144-.919.021-1.773.097-2.613.228-.309.04-.51.394-.387.681.777 1.934 1.155 3.761 1.155 5.585 0 1.97-.398 4.851-1.27 6.664-1.497.452-4.328.836-6.23.836-6.481 0-9.5-3.019-9.5-9.5 0-3.28 1.22-4.5 4.5-4.5s4.5 1.22 4.5 4.5c0 2.789-.874 4.137-2.922 4.508-.271.05-.452.31-.403.581.05.273.314.445.581.403 2.555-.463 3.744-2.208 3.744-5.492 0-.899-.09-1.678-.275-2.344 1.078-1.38 2.97-2.359 5.488-2.839 1.148-.229 2.544-.286 3.632-.311.089 0 .144.055.155.152v.704z"/></svg>